<svg xmlns="http://www.w3.org/2000/svg" xmlns:xlink="http://www.w3.org/1999/xlink" width="500" zoomAndPan="magnify" viewBox="0 0 375 374.999991" height="500" preserveAspectRatio="xMidYMid meet" version="1.0"><defs><g/><clipPath id="id1"><path d="M 52.425781 150.652344 L 96.964844 150.652344 L 96.964844 244 L 52.425781 244 Z M 52.425781 150.652344 " clip-rule="nonzero"/></clipPath><clipPath id="id2"><path d="M 0 135.769531 L 36 135.769531 L 36 173 L 0 173 Z M 0 135.769531 " clip-rule="nonzero"/></clipPath><clipPath id="id3"><path d="M 1 184.820312 L 30.214844 184.820312 L 30.214844 257.320312 L 1 257.320312 Z M 1 184.820312 " clip-rule="nonzero"/></clipPath></defs><path fill="#cce310" d="M 77.058594 209.96875 C 77.507812 209.089844 79.34375 206.929688 79.292969 206.210938 C 79.222656 205.210938 76.882812 203.386719 76.28125 202.570312 C 73.441406 198.699219 69.753906 196.800781 67.667969 192.78125 C 64.203125 200.664062 57.570312 207.027344 57.582031 215.96875 C 57.585938 218.246094 57.632812 220.457031 57.773438 222.660156 C 60.992188 221.222656 64.75 219.765625 66.316406 218.890625 C 69.710938 216.988281 75.320312 213.382812 77.058594 209.96875 " fill-opacity="1" fill-rule="nonzero"/><g clip-path="url(#id1)"><path fill="#cce310" d="M 56.144531 150.707031 C 55.042969 152.871094 53.425781 154.910156 52.828125 157.085938 C 52.105469 159.691406 52.675781 162.90625 53.46875 165.304688 C 54.78125 169.277344 59.585938 169.941406 63.128906 170.519531 C 64.914062 170.808594 67.011719 170.90625 68.546875 171.910156 C 70.65625 173.292969 71.957031 176.121094 72.988281 178.324219 C 74.039062 180.585938 74.171875 183.476562 75.671875 185.457031 C 79.9375 191.101562 84.632812 196.378906 88.703125 202.1875 C 89.875 203.859375 93.558594 207.390625 92.984375 209.089844 C 92.394531 210.835938 90.085938 212.515625 88.777344 213.699219 C 86.675781 215.601562 82.589844 219.660156 80.097656 220.953125 C 75.34375 223.414062 66.078125 228 59.4375 231.082031 C 60.726562 235.019531 62.652344 240.269531 63.957031 243.992188 C 83.121094 237.695312 96.964844 219.609375 96.964844 198.277344 C 96.964844 174.140625 79.246094 154.160156 56.144531 150.707031 " fill-opacity="1" fill-rule="nonzero"/></g><path fill="#69cff6" d="M 49.023438 201.925781 C 55.417969 181.390625 50.230469 167.195312 49.191406 164.699219 C 49.726562 173.1875 49.570312 177.351562 44.527344 201.667969 C 39.261719 227.050781 54.800781 243.992188 54.800781 243.992188 C 54.800781 243.992188 41.957031 224.601562 49.023438 201.925781 " fill-opacity="1" fill-rule="nonzero"/><g clip-path="url(#id2)"><path fill="#5e17eb" d="M 33.613281 160.480469 C 32.386719 159.992188 31.113281 160.683594 29.875 159.9375 C 29.46875 158.128906 29.148438 156.414062 28.890625 154.613281 C 28.699219 153.304688 28.675781 151.925781 28.285156 150.664062 C 27.972656 149.660156 27.0625 148.5625 27.125 147.492188 C 27.160156 146.910156 27.5625 146.246094 27.75 145.6875 C 28.011719 144.910156 28.089844 144.089844 28.136719 143.261719 L 28.414062 140.339844 C 28.660156 139.253906 29.136719 138.09375 29.613281 137.171875 C 29.839844 136.734375 30.289062 136.316406 30.246094 135.796875 C 29.441406 135.765625 28.519531 137.472656 28.148438 138.058594 C 27.378906 139.269531 26.871094 140.949219 26.542969 142.335938 C 26.28125 143.460938 26.519531 144.652344 26.191406 145.773438 C 25.871094 146.878906 24.816406 147.828125 24.941406 149.039062 C 24.996094 149.597656 25.578125 150.011719 25.953125 150.40625 C 27.175781 151.691406 26.960938 153.964844 26.894531 155.597656 C 19.738281 159.339844 13.644531 164.835938 9.175781 171.519531 C 6.226562 171.828125 3.242188 171.957031 0.101562 171.984375 C 2.335938 172.039062 5.066406 172.429688 7.410156 172.335938 C 7.824219 172.320312 8.246094 172.316406 8.664062 172.300781 C 11.25 172.214844 14.027344 172.507812 16.570312 172.132812 C 18.847656 171.792969 20.957031 170.773438 23.234375 170.425781 C 24.441406 170.242188 25.601562 170.105469 26.84375 170.105469 C 28.847656 170.105469 30.78125 170.484375 32.753906 169.933594 C 35.777344 169.085938 35.269531 166.023438 34.976562 163.40625 C 34.835938 162.140625 34.882812 160.984375 33.613281 160.480469 " fill-opacity="1" fill-rule="nonzero"/></g><g clip-path="url(#id3)"><path fill="#5e17eb" d="M 30.015625 238.132812 C 30.003906 237.894531 29.984375 237.660156 29.96875 237.425781 C 29.894531 235.195312 29.660156 233.859375 29.660156 233.859375 L 29.65625 233.859375 C 29.332031 231.003906 28.855469 228.238281 28.304688 225.417969 C 27.171875 219.648438 26.683594 213.804688 23.972656 208.792969 C 21.601562 204.417969 20.871094 199.351562 20.011719 194.515625 C 19.628906 192.363281 19.546875 190.46875 17.890625 188.863281 C 16.898438 187.898438 15.640625 187.1875 14.347656 186.683594 C 11.042969 185.796875 5.773438 185.152344 2.972656 184.851562 C 1.742188 189.113281 1.078125 193.617188 1.078125 198.277344 C 1.078125 217.230469 12.011719 233.613281 27.886719 241.453125 C 28.347656 249.652344 25.777344 257.328125 25.777344 257.328125 C 28.453125 251.898438 29.5 246.574219 29.84375 242.371094 C 29.863281 242.378906 29.878906 242.386719 29.894531 242.394531 C 30.058594 241 30.089844 239.582031 30.015625 238.132812 " fill-opacity="1" fill-rule="nonzero"/></g><g fill="#000000" fill-opacity="1"><g transform="translate(110.352616, 176.618185)"><g/></g></g><g fill="#000000" fill-opacity="1"><g transform="translate(117.881078, 176.618185)"><g/></g></g><g fill="#000000" fill-opacity="1"><g transform="translate(125.40954, 176.618185)"><g/></g></g><g fill="#000000" fill-opacity="1"><g transform="translate(132.938001, 176.618185)"><g/></g></g><g fill="#000000" fill-opacity="1"><g transform="translate(140.466464, 176.618185)"><g/></g></g><g fill="#000000" fill-opacity="1"><g transform="translate(147.992263, 176.618185)"><g><path d="M 12.414062 -7.363281 L 7.796875 -7.363281 C 8.589844 -9.335938 9.40625 -11.332031 10.226562 -13.304688 C 10.945312 -11.332031 11.667969 -9.335938 12.414062 -7.363281 Z M -0.0976562 0 L 7.507812 0 L 7.507812 -2.695312 L 5.871094 -2.695312 C 6.136719 -3.296875 6.375 -3.898438 6.617188 -4.5 L 13.472656 -4.5 C 13.6875 -3.898438 13.929688 -3.296875 14.148438 -2.695312 L 12.316406 -2.695312 L 12.316406 0 L 19.921875 0 L 19.921875 -2.695312 L 17.875 -2.695312 C 15.925781 -7.601562 13.882812 -12.4375 11.957031 -17.371094 L 8.660156 -17.371094 C 6.496094 -12.4375 4.1875 -7.601562 1.972656 -2.695312 L -0.0976562 -2.695312 Z M -0.0976562 0 "/></g></g></g><g fill="#000000" fill-opacity="1"><g transform="translate(168.244521, 176.618185)"><g><path d="M 11.523438 0 L 16.695312 0 L 16.695312 -2.695312 L 15.132812 -2.695312 L 15.132812 -12.824219 L 9.671875 -12.824219 L 9.671875 -10.128906 L 11.523438 -10.128906 L 11.523438 -4.304688 C 10.800781 -3.320312 9.839844 -2.644531 8.515625 -2.644531 C 6.855469 -2.644531 5.964844 -3.65625 5.964844 -5.292969 L 5.964844 -12.824219 L 0.527344 -12.824219 L 0.527344 -10.128906 L 2.359375 -10.128906 L 2.359375 -5.148438 C 2.359375 -1.828125 4.402344 0.121094 7.9375 0.121094 C 9.359375 0.121094 10.539062 -0.359375 11.523438 -1.179688 Z M 11.523438 0 "/></g></g></g><g fill="#000000" fill-opacity="1"><g transform="translate(186.01937, 176.618185)"><g><path d="M 8.996094 -5.339844 L 8.996094 -8.300781 L 1.683594 -8.300781 L 1.683594 -5.339844 Z M 8.996094 -5.339844 "/></g></g></g><g fill="#000000" fill-opacity="1"><g transform="translate(196.746818, 176.618185)"><g><path d="M 9.382812 -8.589844 C 8.515625 -8.589844 7.820312 -8.710938 7.097656 -8.949219 L 7.097656 -14.675781 L 8.324219 -14.675781 C 10.753906 -14.675781 12.605469 -13.738281 12.605469 -11.621094 C 12.605469 -9.625 11.285156 -8.589844 9.382812 -8.589844 Z M 1.683594 0 L 8.972656 0 L 8.972656 -2.695312 L 7.097656 -2.695312 L 7.097656 -6.28125 C 7.988281 -6.0625 8.902344 -5.941406 9.792969 -5.941406 C 13.640625 -6.015625 16.191406 -7.746094 16.191406 -11.523438 C 16.191406 -15.421875 13.015625 -17.371094 8.828125 -17.371094 L 1.683594 -17.371094 L 1.683594 -14.675781 L 3.511719 -14.675781 L 3.511719 -2.695312 L 1.683594 -2.695312 Z M 1.683594 0 "/></g></g></g><g fill="#000000" fill-opacity="1"><g transform="translate(213.80009, 176.618185)"><g><path d="M 6.617188 -2.550781 C 5.363281 -2.550781 4.621094 -2.960938 4.621094 -3.96875 C 4.621094 -4.90625 5.4375 -5.246094 6.375 -5.363281 C 7.746094 -5.507812 8.660156 -5.628906 9.742188 -5.773438 L 9.742188 -3.921875 C 8.949219 -3.105469 7.867188 -2.550781 6.617188 -2.550781 Z M 9.742188 0 L 14.941406 0 L 14.941406 -2.695312 L 13.351562 -2.695312 L 13.351562 -8.804688 C 13.351562 -12.003906 10.800781 -12.945312 7.480469 -12.945312 C 5.003906 -12.945312 3.199219 -12.199219 1.78125 -11.113281 L 1.78125 -8.226562 L 4.570312 -8.226562 L 4.570312 -9.597656 C 5.246094 -9.960938 5.992188 -10.199219 6.976562 -10.199219 C 8.515625 -10.199219 9.742188 -9.839844 9.742188 -8.253906 L 9.742188 -8.132812 C 8.660156 -8.011719 7.722656 -7.9375 6.398438 -7.796875 C 3.367188 -7.433594 1.105469 -6.738281 1.105469 -3.898438 C 1.105469 -1.128906 2.984375 0.121094 5.941406 0.121094 C 7.480469 0.121094 8.710938 -0.335938 9.742188 -1.058594 Z M 9.742188 0 "/></g></g></g><g fill="#000000" fill-opacity="1"><g transform="translate(229.530464, 176.618185)"><g><path d="M 4.257812 -14.675781 C 5.460938 -14.675781 6.304688 -15.207031 6.304688 -16.40625 C 6.304688 -17.609375 5.4375 -18.164062 4.28125 -18.164062 C 3.078125 -18.164062 2.285156 -17.539062 2.285156 -16.40625 C 2.285156 -15.253906 3.054688 -14.675781 4.257812 -14.675781 Z M 0.699219 0 L 7.867188 0 L 7.867188 -2.695312 L 6.253906 -2.695312 L 6.253906 -12.824219 L 0.722656 -12.824219 L 0.722656 -11.476562 L 0.699219 -10.128906 L 2.476562 -10.128906 L 2.476562 -2.695312 L 0.722656 -2.695312 L 0.722656 -1.347656 Z M 0.699219 0 "/></g></g></g><g fill="#000000" fill-opacity="1"><g transform="translate(237.94887, 176.618185)"><g><path d="M 1.300781 0 L 8.421875 0 L 8.421875 -2.695312 L 6.738281 -2.695312 L 6.738281 -8.035156 C 7.84375 -9.503906 9.261719 -9.886719 11.1875 -9.886719 L 11.1875 -12.945312 C 9.335938 -12.945312 7.914062 -12.292969 6.738281 -11.140625 L 6.738281 -12.824219 L 1.300781 -12.824219 C 1.300781 -11.042969 1.273438 -11.933594 1.273438 -10.128906 L 3.128906 -10.128906 L 3.128906 -2.695312 L 1.324219 -2.695312 L 1.324219 -1.347656 C 1.324219 -1.105469 1.324219 -0.890625 1.300781 0 Z M 1.300781 0 "/></g></g></g><g fill="#000000" fill-opacity="1"><g transform="translate(249.614373, 176.618185)"><g/></g></g><g fill="#000000" fill-opacity="1"><g transform="translate(257.142832, 176.618185)"><g><path d="M 15.6875 0.386719 L 17.828125 -1.585938 C 17.105469 -2.238281 16.3125 -2.960938 15.519531 -3.730469 C 16.3125 -4.8125 16.960938 -6.0625 17.515625 -7.507812 L 14.386719 -8.179688 C 14.074219 -7.3125 13.6875 -6.519531 13.28125 -5.820312 C 12.171875 -6.878906 11.066406 -7.914062 10.03125 -8.878906 C 11.910156 -9.886719 13.375 -11.019531 13.402344 -13.257812 C 13.402344 -16.070312 11.113281 -17.492188 8.15625 -17.492188 C 5.222656 -17.492188 3.054688 -15.976562 3.054688 -13.207031 C 3.054688 -11.523438 3.945312 -10.371094 5.125 -9.335938 C 3.03125 -8.300781 1.347656 -7.195312 1.347656 -4.835938 C 1.347656 -1.492188 4.210938 0.121094 7.84375 0.121094 C 10.105469 0.121094 11.957031 -0.503906 13.472656 -1.660156 C 14.265625 -0.914062 15.011719 -0.214844 15.6875 0.386719 Z M 6.542969 -13.207031 C 6.542969 -14.121094 7.074219 -14.796875 7.988281 -14.796875 C 9.070312 -14.796875 9.816406 -14.289062 9.816406 -13.257812 C 9.792969 -11.933594 8.972656 -11.257812 7.890625 -10.683594 C 7.121094 -11.355469 6.542969 -12.125 6.542969 -13.207031 Z M 8.011719 -2.574219 C 6.28125 -2.574219 4.957031 -3.222656 4.957031 -4.835938 C 4.957031 -6.28125 5.992188 -6.90625 7.265625 -7.507812 L 7.289062 -7.480469 C 8.492188 -6.351562 9.9375 -4.980469 11.378906 -3.632812 C 10.464844 -2.960938 9.359375 -2.574219 8.011719 -2.574219 Z M 8.011719 -2.574219 "/></g></g></g><g fill="#000000" fill-opacity="1"><g transform="translate(275.567095, 176.618185)"><g/></g></g><g fill="#000000" fill-opacity="1"><g transform="translate(283.095555, 176.618185)"><g><path d="M 1.660156 0 L 8.949219 0 L 8.949219 -2.695312 L 7.121094 -2.695312 L 7.121094 -7.601562 L 13.472656 -7.601562 L 13.472656 -10.320312 L 7.121094 -10.320312 L 7.121094 -14.675781 L 12.535156 -14.675781 L 12.535156 -13.136719 L 15.324219 -13.136719 L 15.324219 -17.371094 L 1.660156 -17.371094 L 1.660156 -14.675781 L 3.511719 -14.675781 L 3.511719 -2.695312 L 1.660156 -2.695312 Z M 1.660156 0 "/></g></g></g><g fill="#000000" fill-opacity="1"><g transform="translate(299.066458, 176.618185)"><g><path d="M 7.820312 0.121094 C 11.835938 0.121094 15.230469 -1.105469 15.230469 -4.667969 C 15.230469 -7.746094 12.628906 -8.878906 9.671875 -10.082031 C 7.601562 -10.921875 5.339844 -11.742188 5.339844 -13.039062 L 5.339844 -13.0625 C 5.339844 -14.289062 6.617188 -14.796875 8.15625 -14.796875 C 9.285156 -14.796875 10.25 -14.53125 11.1875 -14.171875 L 11.1875 -12.34375 L 13.976562 -12.34375 L 13.976562 -15.902344 C 12.078125 -16.863281 10.464844 -17.371094 8.277344 -17.371094 C 4.621094 -17.371094 1.730469 -16.023438 1.730469 -12.847656 C 1.730469 -9.839844 4.332031 -8.757812 7.242188 -7.578125 C 9.359375 -6.738281 11.621094 -5.964844 11.621094 -4.59375 C 11.621094 -3.390625 9.914062 -2.695312 7.964844 -2.695312 C 6.664062 -2.695312 5.628906 -2.984375 4.546875 -3.488281 L 4.546875 -5.078125 L 1.78125 -5.078125 L 1.78125 -1.273438 L 1.804688 -1.273438 C 3.800781 -0.242188 5.507812 0.121094 7.820312 0.121094 Z M 7.820312 0.121094 "/></g></g></g><g fill="#000000" fill-opacity="1"><g transform="translate(315.518409, 176.618185)"><g><path d="M 3.535156 0.0976562 C 7.410156 0.0976562 9.671875 -1.875 9.671875 -5.917969 L 9.671875 -14.675781 L 11.476562 -14.675781 L 11.476562 -17.371094 L 4.304688 -17.371094 L 4.304688 -14.675781 L 6.0625 -14.675781 L 6.0625 -5.917969 C 6.0625 -3.945312 5.363281 -2.597656 3.535156 -2.597656 C 2.71875 -2.597656 2.214844 -2.886719 1.539062 -3.222656 L 0.722656 -2.164062 L -0.0976562 -1.082031 C 0.769531 -0.527344 2.019531 0.0976562 3.535156 0.0976562 Z M 3.535156 0.0976562 "/></g></g></g><g fill="#000000" fill-opacity="1"><g transform="translate(110.352616, 210.298911)"><g/></g></g><g fill="#000000" fill-opacity="1"><g transform="translate(117.881078, 210.298911)"><g/></g></g><g fill="#000000" fill-opacity="1"><g transform="translate(125.40954, 210.298911)"><g/></g></g><g fill="#000000" fill-opacity="1"><g transform="translate(132.938001, 210.298911)"><g/></g></g><g fill="#000000" fill-opacity="1"><g transform="translate(140.466464, 210.298911)"><g/></g></g><g fill="#000000" fill-opacity="1"><g transform="translate(147.994926, 210.298911)"><g/></g></g><g fill="#000000" fill-opacity="1"><g transform="translate(155.523389, 210.298911)"><g/></g></g><g fill="#000000" fill-opacity="1"><g transform="translate(163.051851, 210.298911)"><g/></g></g><g fill="#000000" fill-opacity="1"><g transform="translate(170.580311, 210.298911)"><g/></g></g><g fill="#000000" fill-opacity="1"><g transform="translate(178.10877, 210.298911)"><g/></g></g><g fill="#000000" fill-opacity="1"><g transform="translate(185.63723, 210.298911)"><g/></g></g><g fill="#000000" fill-opacity="1"><g transform="translate(193.165689, 210.298911)"><g/></g></g><g fill="#000000" fill-opacity="1"><g transform="translate(200.69016, 210.298911)"><g><path d="M 8.15625 -2.695312 L 6.421875 -2.695312 L 6.421875 -12.414062 C 9.574219 -8.277344 12.726562 -4.136719 15.902344 0 L 20.089844 0 L 20.089844 -14.675781 L 21.652344 -14.675781 L 21.652344 -17.371094 L 14.773438 -17.371094 L 14.773438 -14.675781 L 16.480469 -14.675781 L 16.480469 -4.621094 C 13.230469 -8.878906 10.007812 -13.136719 6.761719 -17.371094 L 1.058594 -17.371094 L 1.058594 -14.675781 L 2.839844 -14.675781 L 2.839844 -2.695312 L 1.035156 -2.695312 L 1.035156 0 L 8.15625 0 Z M 8.15625 -2.695312 "/></g></g></g><g fill="#000000" fill-opacity="1"><g transform="translate(223.251469, 210.298911)"><g><path d="M 13.449219 -1.636719 L 11.621094 -3.703125 C 10.609375 -2.984375 9.574219 -2.644531 8.324219 -2.644531 C 6.253906 -2.644531 5.027344 -3.632812 4.644531 -5.414062 L 14.171875 -5.414062 L 14.171875 -6.808594 C 14.171875 -10.898438 11.765625 -12.917969 7.867188 -12.917969 C 3.632812 -12.917969 1.035156 -10.875 1.035156 -6.6875 C 1.035156 -2.140625 3.875 0.121094 8.398438 0.121094 C 10.515625 0.121094 11.886719 -0.433594 13.449219 -1.636719 Z M 7.699219 -10.175781 C 9.40625 -10.175781 10.488281 -9.429688 10.707031 -7.914062 L 4.644531 -7.914062 C 4.980469 -9.359375 5.964844 -10.175781 7.699219 -10.175781 Z M 7.699219 -10.175781 "/></g></g></g><g fill="#000000" fill-opacity="1"><g transform="translate(238.38054, 210.298911)"><g><path d="M 9.070312 -2.574219 C 7.769531 -2.574219 6.640625 -2.933594 5.605469 -3.585938 L 5.605469 -8.492188 C 6.519531 -9.574219 7.675781 -10.273438 9.117188 -10.273438 C 11.378906 -10.273438 12.4375 -8.636719 12.4375 -6.304688 L 12.4375 -6.160156 C 12.4375 -4.019531 11.308594 -2.574219 9.117188 -2.574219 Z M 0.167969 7.21875 L 7.195312 7.21875 L 7.195312 4.523438 L 5.605469 4.523438 L 5.605469 -0.792969 C 6.785156 -0.191406 8.109375 0.121094 9.625 0.121094 C 13.664062 0.121094 16.023438 -2.453125 16.023438 -6.398438 L 16.023438 -6.449219 C 16.023438 -10.320312 13.808594 -12.96875 9.839844 -12.96875 C 8.15625 -12.96875 6.785156 -12.4375 5.605469 -11.546875 L 5.605469 -12.824219 L 0.191406 -12.824219 L 0.191406 -10.128906 L 1.996094 -10.128906 L 1.996094 4.523438 L 0.167969 4.523438 Z M 0.167969 7.21875 "/></g></g></g><g fill="#000000" fill-opacity="1"><g transform="translate(255.433815, 210.298911)"><g><path d="M 6.617188 -2.550781 C 5.363281 -2.550781 4.621094 -2.960938 4.621094 -3.96875 C 4.621094 -4.90625 5.4375 -5.246094 6.375 -5.363281 C 7.746094 -5.507812 8.660156 -5.628906 9.742188 -5.773438 L 9.742188 -3.921875 C 8.949219 -3.105469 7.867188 -2.550781 6.617188 -2.550781 Z M 9.742188 0 L 14.941406 0 L 14.941406 -2.695312 L 13.351562 -2.695312 L 13.351562 -8.804688 C 13.351562 -12.003906 10.800781 -12.945312 7.480469 -12.945312 C 5.003906 -12.945312 3.199219 -12.199219 1.78125 -11.113281 L 1.78125 -8.226562 L 4.570312 -8.226562 L 4.570312 -9.597656 C 5.246094 -9.960938 5.992188 -10.199219 6.976562 -10.199219 C 8.515625 -10.199219 9.742188 -9.839844 9.742188 -8.253906 L 9.742188 -8.132812 C 8.660156 -8.011719 7.722656 -7.9375 6.398438 -7.796875 C 3.367188 -7.433594 1.105469 -6.738281 1.105469 -3.898438 C 1.105469 -1.128906 2.984375 0.121094 5.941406 0.121094 C 7.480469 0.121094 8.710938 -0.335938 9.742188 -1.058594 Z M 9.742188 0 "/></g></g></g><g fill="#000000" fill-opacity="1"><g transform="translate(271.164189, 210.298911)"><g><path d="M 4.523438 0.0234375 C 5.871094 0.0234375 7.21875 0 8.539062 0 L 8.539062 -2.695312 L 6.304688 -2.695312 L 6.304688 -19.246094 L 2.71875 -19.246094 L 2.71875 -19.222656 C 1.996094 -19.246094 1.273438 -19.246094 0.578125 -19.246094 L 0.578125 -17.898438 L 0.554688 -16.550781 L 2.71875 -16.550781 L 2.71875 -2.695312 L 0.503906 -2.695312 L 0.503906 0 C 1.851562 0 3.175781 0.0234375 4.523438 0.0234375 Z M 4.523438 0.0234375 "/></g></g></g><g fill="#000000" fill-opacity="1"><g transform="translate(110.352616, 233.263042)"><g/></g></g><g fill="#000000" fill-opacity="1"><g transform="translate(113.85236, 233.263042)"><g/></g></g><g fill="#000000" fill-opacity="1"><g transform="translate(117.352103, 233.263042)"><g/></g></g><g fill="#000000" fill-opacity="1"><g transform="translate(120.851847, 233.263042)"><g/></g></g><g fill="#000000" fill-opacity="1"><g transform="translate(124.35159, 233.263042)"><g/></g></g><g fill="#000000" fill-opacity="1"><g transform="translate(127.851335, 233.263042)"><g/></g></g><g fill="#000000" fill-opacity="1"><g transform="translate(131.351079, 233.263042)"><g/></g></g><g fill="#000000" fill-opacity="1"><g transform="translate(134.850823, 233.263042)"><g/></g></g><g fill="#000000" fill-opacity="1"><g transform="translate(138.350567, 233.263042)"><g/></g></g><g fill="#000000" fill-opacity="1"><g transform="translate(141.850312, 233.263042)"><g/></g></g><g fill="#000000" fill-opacity="1"><g transform="translate(145.350056, 233.263042)"><g/></g></g><g fill="#000000" fill-opacity="1"><g transform="translate(148.8498, 233.263042)"><g/></g></g><g fill="#000000" fill-opacity="1"><g transform="translate(152.349545, 233.263042)"><g/></g></g><g fill="#000000" fill-opacity="1"><g transform="translate(155.849289, 233.263042)"><g/></g></g><g fill="#000000" fill-opacity="1"><g transform="translate(159.34903, 233.263042)"><g/></g></g><g fill="#000000" fill-opacity="1"><g transform="translate(162.848774, 233.263042)"><g/></g></g><g fill="#000000" fill-opacity="1"><g transform="translate(166.339647, 233.263042)"><g><path d="M 2.144531 -2.480469 L 3.214844 -2.480469 C 4.335938 -2.480469 5.335938 -3.304688 5.335938 -4.714844 C 5.335938 -6.03125 4.335938 -6.9375 3.214844 -6.9375 L 0.613281 -6.9375 L 0.613281 0 L 2.144531 0 Z M 2.960938 -5.734375 C 3.40625 -5.734375 3.878906 -5.347656 3.878906 -4.714844 C 3.878906 -4.050781 3.40625 -3.683594 2.960938 -3.683594 L 2.144531 -3.683594 L 2.144531 -5.734375 Z M 2.960938 -5.734375 "/></g></g></g><g fill="#000000" fill-opacity="1"><g transform="translate(172.77764, 233.263042)"><g><path d="M 3.152344 -3.367188 C 3.386719 -3.367188 3.613281 -3.296875 3.765625 -3.113281 L 3.785156 -3.113281 L 3.785156 -4.5 C 3.664062 -4.5625 3.460938 -4.601562 3.328125 -4.601562 C 2.765625 -4.601562 2.378906 -4.285156 2.144531 -3.949219 L 2.144531 -4.5 L 0.613281 -4.5 L 0.613281 0 L 2.144531 0 L 2.144531 -2.246094 C 2.144531 -2.785156 2.582031 -3.367188 3.152344 -3.367188 Z M 3.152344 -3.367188 "/></g></g></g><g fill="#000000" fill-opacity="1"><g transform="translate(177.613886, 233.263042)"><g><path d="M 2.929688 -1.0625 C 2.101562 -1.0625 1.878906 -1.664062 1.878906 -2.234375 C 1.878906 -2.796875 2.121094 -3.398438 2.929688 -3.398438 C 3.722656 -3.398438 3.96875 -2.796875 3.96875 -2.234375 C 3.96875 -1.664062 3.746094 -1.0625 2.929688 -1.0625 Z M 2.929688 -4.589844 C 1.519531 -4.589844 0.355469 -3.652344 0.355469 -2.246094 C 0.355469 -0.804688 1.488281 0.09375 2.929688 0.09375 C 4.355469 0.09375 5.488281 -0.804688 5.488281 -2.246094 C 5.488281 -3.652344 4.328125 -4.589844 2.929688 -4.589844 Z M 2.929688 -4.589844 "/></g></g></g><g fill="#000000" fill-opacity="1"><g transform="translate(184.408965, 233.263042)"><g><path d="M 2.398438 -7.652344 C 1.582031 -7.652344 0.949219 -7.144531 0.949219 -6.03125 L 0.949219 -4.5 L 0.304688 -4.5 L 0.304688 -3.316406 L 0.949219 -3.316406 L 0.949219 0 L 2.480469 0 L 2.480469 -3.316406 L 3.53125 -3.316406 L 3.53125 -4.5 L 2.480469 -4.5 L 2.480469 -5.847656 C 2.480469 -6.285156 2.5625 -6.457031 2.878906 -6.457031 L 3.53125 -6.457031 L 3.53125 -7.652344 Z M 2.398438 -7.652344 "/></g></g></g><g fill="#000000" fill-opacity="1"><g transform="translate(189.061564, 233.263042)"><g><path d="M 2 -2.785156 C 2 -2.785156 2.050781 -3.621094 3.011719 -3.621094 C 3.9375 -3.621094 4.011719 -2.785156 4.011719 -2.785156 Z M 5.480469 -2.347656 C 5.480469 -3.785156 4.347656 -4.601562 2.980469 -4.601562 C 1.46875 -4.601562 0.355469 -3.652344 0.355469 -2.246094 C 0.355469 -0.816406 1.429688 0.101562 2.980469 0.101562 C 4.171875 0.101562 5.132812 -0.488281 5.398438 -1.671875 L 3.835938 -1.671875 C 3.828125 -1.347656 3.488281 -0.988281 2.949219 -0.988281 C 2.347656 -0.988281 1.980469 -1.539062 1.980469 -2.0625 L 5.46875 -2.0625 C 5.46875 -2.152344 5.480469 -2.253906 5.480469 -2.347656 Z M 5.480469 -2.347656 "/></g></g></g><g fill="#000000" fill-opacity="1"><g transform="translate(195.846435, 233.263042)"><g><path d="M 4.773438 -3.132812 C 4.644531 -4.164062 3.773438 -4.601562 2.589844 -4.601562 C 1.101562 -4.601562 0.398438 -4.089844 0.398438 -3.171875 C 0.398438 -1.539062 3.304688 -2.285156 3.304688 -1.335938 C 3.304688 -1.09375 3.011719 -0.960938 2.664062 -0.960938 C 2.328125 -0.960938 1.722656 -1 1.722656 -1.671875 L 0.203125 -1.671875 C 0.285156 -0.398438 1.296875 0.101562 2.632812 0.101562 C 3.9375 0.101562 4.847656 -0.285156 4.847656 -1.347656 C 4.847656 -3.246094 1.9375 -2.601562 1.9375 -3.234375 C 1.9375 -3.5 2.253906 -3.652344 2.550781 -3.652344 C 2.847656 -3.652344 3.222656 -3.539062 3.277344 -3.132812 Z M 4.773438 -3.132812 "/></g></g></g><g fill="#000000" fill-opacity="1"><g transform="translate(201.94776, 233.263042)"><g><path d="M 4.773438 -3.132812 C 4.644531 -4.164062 3.773438 -4.601562 2.589844 -4.601562 C 1.101562 -4.601562 0.398438 -4.089844 0.398438 -3.171875 C 0.398438 -1.539062 3.304688 -2.285156 3.304688 -1.335938 C 3.304688 -1.09375 3.011719 -0.960938 2.664062 -0.960938 C 2.328125 -0.960938 1.722656 -1 1.722656 -1.671875 L 0.203125 -1.671875 C 0.285156 -0.398438 1.296875 0.101562 2.632812 0.101562 C 3.9375 0.101562 4.847656 -0.285156 4.847656 -1.347656 C 4.847656 -3.246094 1.9375 -2.601562 1.9375 -3.234375 C 1.9375 -3.5 2.253906 -3.652344 2.550781 -3.652344 C 2.847656 -3.652344 3.222656 -3.539062 3.277344 -3.132812 Z M 4.773438 -3.132812 "/></g></g></g><g fill="#000000" fill-opacity="1"><g transform="translate(208.049085, 233.263042)"><g><path d="M 0.53125 -6.039062 C 0.53125 -5.550781 0.929688 -5.144531 1.429688 -5.144531 C 1.917969 -5.144531 2.328125 -5.550781 2.328125 -6.039062 C 2.328125 -6.539062 1.917969 -6.9375 1.429688 -6.9375 C 0.929688 -6.9375 0.53125 -6.539062 0.53125 -6.039062 Z M 2.195312 0 L 2.195312 -4.5 L 0.664062 -4.5 L 0.664062 0 Z M 2.195312 0 "/></g></g></g><g fill="#000000" fill-opacity="1"><g transform="translate(211.854896, 233.263042)"><g><path d="M 2.929688 -1.0625 C 2.101562 -1.0625 1.878906 -1.664062 1.878906 -2.234375 C 1.878906 -2.796875 2.121094 -3.398438 2.929688 -3.398438 C 3.722656 -3.398438 3.96875 -2.796875 3.96875 -2.234375 C 3.96875 -1.664062 3.746094 -1.0625 2.929688 -1.0625 Z M 2.929688 -4.589844 C 1.519531 -4.589844 0.355469 -3.652344 0.355469 -2.246094 C 0.355469 -0.804688 1.488281 0.09375 2.929688 0.09375 C 4.355469 0.09375 5.488281 -0.804688 5.488281 -2.246094 C 5.488281 -3.652344 4.328125 -4.589844 2.929688 -4.589844 Z M 2.929688 -4.589844 "/></g></g></g><g fill="#000000" fill-opacity="1"><g transform="translate(218.649973, 233.263042)"><g><path d="M 5.214844 -2.550781 C 5.214844 -3.773438 4.722656 -4.601562 3.519531 -4.601562 C 2.929688 -4.601562 2.449219 -4.335938 2.144531 -3.949219 L 2.144531 -4.5 L 0.613281 -4.5 L 0.613281 0 L 2.144531 0 L 2.144531 -2.246094 C 2.144531 -2.855469 2.519531 -3.367188 3 -3.367188 C 3.480469 -3.367188 3.683594 -3.082031 3.683594 -2.550781 L 3.683594 0 L 5.214844 0 Z M 5.214844 -2.550781 "/></g></g></g><g fill="#000000" fill-opacity="1"><g transform="translate(225.271614, 233.263042)"><g><path d="M 4.132812 -2.246094 C 4.132812 -1.652344 3.671875 -1.121094 3.0625 -1.121094 C 2.449219 -1.121094 1.988281 -1.652344 1.988281 -2.246094 C 1.988281 -2.835938 2.449219 -3.367188 3.0625 -3.367188 C 3.671875 -3.367188 4.132812 -2.835938 4.132812 -2.246094 Z M 5.664062 -4.488281 L 4.132812 -4.488281 L 4.132812 -3.949219 C 3.734375 -4.4375 3.164062 -4.601562 2.589844 -4.601562 C 1.316406 -4.601562 0.355469 -3.488281 0.355469 -2.246094 C 0.355469 -1 1.316406 0.101562 2.589844 0.101562 C 3.164062 0.101562 3.828125 -0.0820312 4.132812 -0.539062 L 4.132812 0 L 5.664062 0 Z M 5.664062 -4.488281 "/></g></g></g><g fill="#000000" fill-opacity="1"><g transform="translate(232.495181, 233.263042)"><g><path d="M 2.144531 0 L 2.144531 -7.652344 L 0.613281 -7.652344 L 0.613281 0 Z M 2.144531 0 "/></g></g></g><g fill="#000000" fill-opacity="1"><g transform="translate(236.198978, 233.263042)"><g/></g></g><g fill="#000000" fill-opacity="1"><g transform="translate(239.698722, 233.263042)"><g><path d="M 6.980469 -6.9375 L 5.328125 -6.9375 L 3.886719 -3.039062 L 3.511719 -1.949219 L 3.132812 -3.039062 L 1.703125 -6.9375 L 0.0507812 -6.9375 L 2.855469 0 L 4.171875 0 Z M 6.980469 -6.9375 "/></g></g></g><g fill="#000000" fill-opacity="1"><g transform="translate(247.677259, 233.263042)"><g><path d="M 0.53125 -6.039062 C 0.53125 -5.550781 0.929688 -5.144531 1.429688 -5.144531 C 1.917969 -5.144531 2.328125 -5.550781 2.328125 -6.039062 C 2.328125 -6.539062 1.917969 -6.9375 1.429688 -6.9375 C 0.929688 -6.9375 0.53125 -6.539062 0.53125 -6.039062 Z M 2.195312 0 L 2.195312 -4.5 L 0.664062 -4.5 L 0.664062 0 Z M 2.195312 0 "/></g></g></g><g fill="#000000" fill-opacity="1"><g transform="translate(251.48307, 233.263042)"><g><path d="M 4.773438 -3.132812 C 4.644531 -4.164062 3.773438 -4.601562 2.589844 -4.601562 C 1.101562 -4.601562 0.398438 -4.089844 0.398438 -3.171875 C 0.398438 -1.539062 3.304688 -2.285156 3.304688 -1.335938 C 3.304688 -1.09375 3.011719 -0.960938 2.664062 -0.960938 C 2.328125 -0.960938 1.722656 -1 1.722656 -1.671875 L 0.203125 -1.671875 C 0.285156 -0.398438 1.296875 0.101562 2.632812 0.101562 C 3.9375 0.101562 4.847656 -0.285156 4.847656 -1.347656 C 4.847656 -3.246094 1.9375 -2.601562 1.9375 -3.234375 C 1.9375 -3.5 2.253906 -3.652344 2.550781 -3.652344 C 2.847656 -3.652344 3.222656 -3.539062 3.277344 -3.132812 Z M 4.773438 -3.132812 "/></g></g></g><g fill="#000000" fill-opacity="1"><g transform="translate(257.584395, 233.263042)"><g><path d="M 4.132812 -2.246094 C 4.132812 -1.652344 3.671875 -1.121094 3.0625 -1.121094 C 2.449219 -1.121094 1.988281 -1.652344 1.988281 -2.246094 C 1.988281 -2.835938 2.449219 -3.367188 3.0625 -3.367188 C 3.671875 -3.367188 4.132812 -2.835938 4.132812 -2.246094 Z M 5.664062 -4.488281 L 4.132812 -4.488281 L 4.132812 -3.949219 C 3.734375 -4.4375 3.164062 -4.601562 2.589844 -4.601562 C 1.316406 -4.601562 0.355469 -3.488281 0.355469 -2.246094 C 0.355469 -1 1.316406 0.101562 2.589844 0.101562 C 3.164062 0.101562 3.828125 -0.0820312 4.132812 -0.539062 L 4.132812 0 L 5.664062 0 Z M 5.664062 -4.488281 "/></g></g></g><g fill="#000000" fill-opacity="1"><g transform="translate(264.807961, 233.263042)"><g/></g></g><g fill="#000000" fill-opacity="1"><g transform="translate(268.3077, 233.263042)"><g><path d="M 2.90625 -3.40625 C 3.4375 -3.40625 3.773438 -3.132812 3.796875 -2.695312 L 5.316406 -2.695312 C 5.246094 -3.734375 4.316406 -4.601562 2.855469 -4.601562 C 1.355469 -4.601562 0.355469 -3.53125 0.355469 -2.246094 C 0.355469 -0.960938 1.296875 0.101562 2.855469 0.101562 C 4.222656 0.101562 5.132812 -0.671875 5.285156 -1.671875 L 3.796875 -1.671875 C 3.746094 -1.265625 3.378906 -1.0625 2.90625 -1.0625 C 2.195312 -1.0625 1.988281 -1.714844 1.988281 -2.234375 C 1.988281 -2.746094 2.214844 -3.40625 2.90625 -3.40625 Z M 2.90625 -3.40625 "/></g></g></g><g fill="#000000" fill-opacity="1"><g transform="translate(274.888525, 233.263042)"><g><path d="M 2.929688 -1.0625 C 2.101562 -1.0625 1.878906 -1.664062 1.878906 -2.234375 C 1.878906 -2.796875 2.121094 -3.398438 2.929688 -3.398438 C 3.722656 -3.398438 3.96875 -2.796875 3.96875 -2.234375 C 3.96875 -1.664062 3.746094 -1.0625 2.929688 -1.0625 Z M 2.929688 -4.589844 C 1.519531 -4.589844 0.355469 -3.652344 0.355469 -2.246094 C 0.355469 -0.804688 1.488281 0.09375 2.929688 0.09375 C 4.355469 0.09375 5.488281 -0.804688 5.488281 -2.246094 C 5.488281 -3.652344 4.328125 -4.589844 2.929688 -4.589844 Z M 2.929688 -4.589844 "/></g></g></g><g fill="#000000" fill-opacity="1"><g transform="translate(281.683599, 233.263042)"><g><path d="M 5.214844 -2.550781 C 5.214844 -3.773438 4.722656 -4.601562 3.519531 -4.601562 C 2.929688 -4.601562 2.449219 -4.335938 2.144531 -3.949219 L 2.144531 -4.5 L 0.613281 -4.5 L 0.613281 0 L 2.144531 0 L 2.144531 -2.246094 C 2.144531 -2.855469 2.519531 -3.367188 3 -3.367188 C 3.480469 -3.367188 3.683594 -3.082031 3.683594 -2.550781 L 3.683594 0 L 5.214844 0 Z M 5.214844 -2.550781 "/></g></g></g><g fill="#000000" fill-opacity="1"><g transform="translate(288.305234, 233.263042)"><g><path d="M 4.773438 -3.132812 C 4.644531 -4.164062 3.773438 -4.601562 2.589844 -4.601562 C 1.101562 -4.601562 0.398438 -4.089844 0.398438 -3.171875 C 0.398438 -1.539062 3.304688 -2.285156 3.304688 -1.335938 C 3.304688 -1.09375 3.011719 -0.960938 2.664062 -0.960938 C 2.328125 -0.960938 1.722656 -1 1.722656 -1.671875 L 0.203125 -1.671875 C 0.285156 -0.398438 1.296875 0.101562 2.632812 0.101562 C 3.9375 0.101562 4.847656 -0.285156 4.847656 -1.347656 C 4.847656 -3.246094 1.9375 -2.601562 1.9375 -3.234375 C 1.9375 -3.5 2.253906 -3.652344 2.550781 -3.652344 C 2.847656 -3.652344 3.222656 -3.539062 3.277344 -3.132812 Z M 4.773438 -3.132812 "/></g></g></g><g fill="#000000" fill-opacity="1"><g transform="translate(294.406553, 233.263042)"><g><path d="M 0.511719 -1.9375 C 0.511719 -0.722656 1 0.101562 2.203125 0.101562 C 2.796875 0.101562 3.277344 -0.164062 3.582031 -0.550781 L 3.582031 0 L 5.113281 0 L 5.113281 -4.5 L 3.582031 -4.5 L 3.582031 -2.246094 C 3.582031 -1.644531 3.203125 -1.121094 2.722656 -1.121094 C 2.246094 -1.121094 2.039062 -1.417969 2.039062 -1.9375 L 2.039062 -4.5 L 0.511719 -4.5 Z M 0.511719 -1.9375 "/></g></g></g><g fill="#000000" fill-opacity="1"><g transform="translate(301.079195, 233.263042)"><g><path d="M 2.144531 0 L 2.144531 -7.652344 L 0.613281 -7.652344 L 0.613281 0 Z M 2.144531 0 "/></g></g></g><g fill="#000000" fill-opacity="1"><g transform="translate(304.782986, 233.263042)"><g><path d="M 2.539062 -3.316406 L 3.355469 -3.316406 L 3.355469 -4.5 L 2.539062 -4.5 L 2.539062 -6.214844 L 1.019531 -6.214844 L 1.019531 -4.5 L 0.203125 -4.5 L 0.203125 -3.316406 L 1.019531 -3.316406 L 1.019531 0 L 2.539062 0 Z M 2.539062 -3.316406 "/></g></g></g><g fill="#000000" fill-opacity="1"><g transform="translate(309.292755, 233.263042)"><g><path d="M 4.132812 -2.246094 C 4.132812 -1.652344 3.671875 -1.121094 3.0625 -1.121094 C 2.449219 -1.121094 1.988281 -1.652344 1.988281 -2.246094 C 1.988281 -2.835938 2.449219 -3.367188 3.0625 -3.367188 C 3.671875 -3.367188 4.132812 -2.835938 4.132812 -2.246094 Z M 5.664062 -4.488281 L 4.132812 -4.488281 L 4.132812 -3.949219 C 3.734375 -4.4375 3.164062 -4.601562 2.589844 -4.601562 C 1.316406 -4.601562 0.355469 -3.488281 0.355469 -2.246094 C 0.355469 -1 1.316406 0.101562 2.589844 0.101562 C 3.164062 0.101562 3.828125 -0.0820312 4.132812 -0.539062 L 4.132812 0 L 5.664062 0 Z M 5.664062 -4.488281 "/></g></g></g><g fill="#000000" fill-opacity="1"><g transform="translate(316.516316, 233.263042)"><g><path d="M 5.214844 -2.550781 C 5.214844 -3.773438 4.722656 -4.601562 3.519531 -4.601562 C 2.929688 -4.601562 2.449219 -4.335938 2.144531 -3.949219 L 2.144531 -4.5 L 0.613281 -4.5 L 0.613281 0 L 2.144531 0 L 2.144531 -2.246094 C 2.144531 -2.855469 2.519531 -3.367188 3 -3.367188 C 3.480469 -3.367188 3.683594 -3.082031 3.683594 -2.550781 L 3.683594 0 L 5.214844 0 Z M 5.214844 -2.550781 "/></g></g></g><g fill="#000000" fill-opacity="1"><g transform="translate(323.137951, 233.263042)"><g><path d="M 2.539062 -3.316406 L 3.355469 -3.316406 L 3.355469 -4.5 L 2.539062 -4.5 L 2.539062 -6.214844 L 1.019531 -6.214844 L 1.019531 -4.5 L 0.203125 -4.5 L 0.203125 -3.316406 L 1.019531 -3.316406 L 1.019531 0 L 2.539062 0 Z M 2.539062 -3.316406 "/></g></g></g></svg>